<svg xmlns="http://www.w3.org/2000/svg" viewBox="0 0 1094.945 319.484"><title>Obszar roboczy 2</title><rect width="1094.945" height="319.484" fill="transparent"/><path d="M396.248,170.8a17.9,17.9,0,0,0-.951-6.168,3.261,3.261,0,0,0-3.3-1.764,10.806,10.806,0,0,0-2.79.439l.012-23.642a33.733,33.733,0,0,1,6.6-2.125,33.334,33.334,0,0,1,7.173-.8,22.474,22.474,0,0,1,9.572,1.767,17.413,17.413,0,0,1,5.772,4.114,14.349,14.349,0,0,1,2.848,4.7,21.613,21.613,0,0,1,.95,3.378H423.3a17.809,17.809,0,0,1,4.245-6.165,28.548,28.548,0,0,1,6.016-4.4,26.741,26.741,0,0,1,6.61-2.567,25.791,25.791,0,0,1,5.874-.8l-.016,33.186a35.22,35.22,0,0,0-7.048.657,13.216,13.216,0,0,0-5.582,2.494,12.045,12.045,0,0,0-3.673,5.065,21.917,21.917,0,0,0-1.326,8.222l-.16,27.46-32.011-.015Z" fill="#011627"/><path d="M498.429,216.222a62.227,62.227,0,0,1-19.75-2.8,36.253,36.253,0,0,1-13.8-8.083,32.438,32.438,0,0,1-8.144-12.706,49.392,49.392,0,0,1-2.635-16.667,41.561,41.561,0,0,1,2.944-15.858,36.666,36.666,0,0,1,8.229-12.4,37.722,37.722,0,0,1,12.632-8.143,43.108,43.108,0,0,1,16.155-2.93,45.346,45.346,0,0,1,16.591,2.724,31.3,31.3,0,0,1,11.377,7.422,29.127,29.127,0,0,1,6.6,11.236,45.058,45.058,0,0,1,2.123,14.024,50.717,50.717,0,0,1-.3,5.58q-.3,2.645-.736,4.993l-44.934-.021q0,3.671,4.329,6.756t13.728,3.091a89.35,89.35,0,0,0,11.381-.8,72.021,72.021,0,0,0,11.968-2.565l-.01,22.027q-3.084,1.174-5.949,2.126a52.154,52.154,0,0,1-6.094,1.612,67.6,67.6,0,0,1-7.048,1.025Q503.273,216.222,498.429,216.222ZM503,168.941a4.486,4.486,0,0,0,.147-1.322,8.442,8.442,0,0,0-2.273-5.875q-2.277-2.5-6.975-2.5a9.9,9.9,0,0,0-6.975,2.64,9.128,9.128,0,0,0-2.866,7.047Z" fill="#011627"/><path d="M546.613,170.87a17.879,17.879,0,0,0-.951-6.168,3.26,3.26,0,0,0-3.3-1.763,10.812,10.812,0,0,0-2.79.439l.012-23.642a35.514,35.514,0,0,1,13.8-2.93A22.684,22.684,0,0,1,563,138.572a17.482,17.482,0,0,1,5.8,4.115,14.339,14.339,0,0,1,2.861,4.7,21.509,21.509,0,0,1,.952,3.378h1.175a20.157,20.157,0,0,1,3.968-6.165,22.889,22.889,0,0,1,5.728-4.4,26.153,26.153,0,0,1,6.83-2.567,33.178,33.178,0,0,1,7.27-.8q14.39.006,22.022,9.114t7.622,30.107l-.018,37.885-32.159-.015.017-37.592a19.406,19.406,0,0,0-1.463-7.783q-1.47-3.378-6.02-3.381t-6.609,3.155a13.3,13.3,0,0,0-1.913,7.855L578.9,213.91,546.74,213.9Z" fill="#011627"/><path d="M687.866,189.88a25.688,25.688,0,0,0,3.305-.293,13.4,13.4,0,0,0,3.745-1.026l-.011,23.935a38.268,38.268,0,0,1-8.739,2.713,51.235,51.235,0,0,1-9.756.95,38.586,38.586,0,0,1-11.547-1.694,23.551,23.551,0,0,1-9.5-5.659,27.66,27.66,0,0,1-6.5-10.5,46.749,46.749,0,0,1-2.4-16.081l.008-16.887-8.077,0,.012-25.4,9.4,0a56.047,56.047,0,0,1,2.854-10.5,54.617,54.617,0,0,1,2.853-6.239l25.137.011-.007,16.741,15.712.007-.013,25.4-15.712-.008-.007,14.538q0,6.464,2.64,8.224A11.662,11.662,0,0,0,687.866,189.88Z" fill="#011627"/><path d="M748.353,216.34a62.253,62.253,0,0,1-19.75-2.8,36.24,36.24,0,0,1-13.8-8.083,32.434,32.434,0,0,1-8.144-12.7,49.376,49.376,0,0,1-2.636-16.668,41.562,41.562,0,0,1,2.945-15.858,36.652,36.652,0,0,1,8.229-12.4,37.709,37.709,0,0,1,12.632-8.144,43.122,43.122,0,0,1,16.154-2.929,45.327,45.327,0,0,1,16.592,2.724,31.3,31.3,0,0,1,11.377,7.421,29.124,29.124,0,0,1,6.6,11.237,45.049,45.049,0,0,1,2.123,14.024,50.717,50.717,0,0,1-.3,5.58q-.3,2.643-.736,4.992l-44.934-.021q0,3.672,4.329,6.757t13.728,3.09a89.164,89.164,0,0,0,11.38-.8,71.909,71.909,0,0,0,11.969-2.564l-.011,22.026q-3.082,1.176-5.948,2.127a52.317,52.317,0,0,1-6.1,1.612,67.819,67.819,0,0,1-7.047,1.024Q753.2,216.341,748.353,216.34Zm4.574-47.282a4.517,4.517,0,0,0,.147-1.321,8.447,8.447,0,0,0-2.273-5.875q-2.277-2.5-6.975-2.5A9.9,9.9,0,0,0,736.851,162a9.126,9.126,0,0,0-2.867,7.047Z" fill="#011627"/><path d="M817.547,216.078q-12.721-.006-19-7.057T792.271,186.4l.04-83.26,32.011.015.111,78.415a18.637,18.637,0,0,0,.878,6.094,3,3,0,0,0,3.083,1.69,9.71,9.71,0,0,0,2.79-.439l-.012,24.229a35.111,35.111,0,0,1-6.382,2.126A31.726,31.726,0,0,1,817.547,216.078Z" fill="#011627"/><path d="M882.566,216.256a52.667,52.667,0,0,1-17.693-2.8,36.511,36.511,0,0,1-13.285-8.009,35.458,35.458,0,0,1-8.364-12.485,42.931,42.931,0,0,1-2.929-16.228,44.335,44.335,0,0,1,2.944-16.592,34.2,34.2,0,0,1,8.449-12.478,38,38,0,0,1,13.293-7.923,56.131,56.131,0,0,1,34.95.017,38.011,38.011,0,0,1,13.285,7.936,34.213,34.213,0,0,1,8.437,12.485,44.4,44.4,0,0,1,2.929,16.6A43.945,43.945,0,0,1,921.711,193a34.659,34.659,0,0,1-8.3,12.477,36.643,36.643,0,0,1-13.22,8A52.045,52.045,0,0,1,882.566,216.256Zm-.133-26.579a9.282,9.282,0,0,0,7.71-3.411q2.716-3.411,2.721-9.653,0-6.089-2.712-9.58a9.358,9.358,0,0,0-7.854-3.494,10.106,10.106,0,0,0-7.271,2.892q-3.011,2.9-2.868,10.321,0,6.832,2.859,9.877A9.716,9.716,0,0,0,882.433,189.677Z" fill="#011627"/><path d="M254.723,88.192l-66.162,38.2a5.508,5.508,0,0,0-2.754,4.77v79.577l36.881,21.293V149.273l34.789-20.085,34.789,20.085v40.171L263.38,206.122l36.88,21.293,26.133-15.088a5.508,5.508,0,0,0,2.754-4.77v-76.4a5.508,5.508,0,0,0-2.754-4.77l-66.162-38.2A5.508,5.508,0,0,0,254.723,88.192Z" fill="#18efac"/></svg>